<svg
	xmlns="http://www.w3.org/2000/svg"
	width="20"
	height="20"
	fill="#91918E"
><path
		d="M8.75 9.5a.75.75 0 1 0 0-1.5.75.75 0 0 0 0 1.5ZM9.5 11.25a.75.75 0 1 1-1.5 0 .75.75 0 0 1 1.5 0ZM8.75 14.5a.75.75 0 1 0 0-1.5.75.75 0 0 0 0 1.5ZM12 8.75a.75.75 0 1 1-1.5 0 .75.75 0 0 1 1.5 0ZM11.25 12a.75.75 0 1 0 0-1.5.75.75 0 0 0 0 1.5ZM12 13.75a.75.75 0 1 1-1.5 0 .75.75 0 0 1 1.5 0ZM13.75 9.5a.75.75 0 1 0 0-1.5.75.75 0 0 0 0 1.5ZM7 11.25a.75.75 0 1 1-1.5 0 .75.75 0 0 1 1.5 0ZM6.25 14.5a.75.75 0 1 0 0-1.5.75.75 0 0 0 0 1.5ZM14.5 11.25a.75.75 0 1 1-1.5 0 .75.75 0 0 1 1.5 0Z"
	/><path
		fill-rule="evenodd"
		d="M5.25 2.5A2.75 2.75 0 0 0 2.5 5.25v9.5a2.75 2.75 0 0 0 2.75 2.75h9.5a2.75 2.75 0 0 0 2.75-2.75v-9.5a2.75 2.75 0 0 0-2.75-2.75h-9.5ZM4 6.5v8.25c0 .69.56 1.25 1.25 1.25h9.5c.69 0 1.25-.56 1.25-1.25V6.5H4Z"
		clip-rule="evenodd"
	/></svg>
