<svg
	xmlns="http://www.w3.org/2000/svg"
	width="20"
	height="20"
	fill="#91918E"
><path
		fill-rule="evenodd"
		d="M10 1.75c-1.996 0-3.835.288-5.202.776-.68.243-1.284.55-1.732.928-.444.375-.816.894-.816 1.546v10c0 .652.372 1.17.816 1.546.448.378 1.052.685 1.732.928 1.367.488 3.206.776 5.202.776s3.835-.288 5.202-.776c.68-.243 1.284-.55 1.732-.928.444-.375.816-.894.816-1.546V5c0-.652-.372-1.17-.816-1.546-.448-.378-1.052-.685-1.732-.928-1.367-.488-3.206-.776-5.202-.776ZM3.75 5c0-.039.02-.177.284-.4.26-.22.682-.452 1.269-.661C6.469 3.522 8.13 3.25 10 3.25s3.531.272 4.697.689c.587.209 1.009.44 1.269.66.264.224.284.362.284.401 0 .039-.02.177-.284.4-.26.22-.682.452-1.268.661-1.167.417-2.828.689-4.698.689-1.87 0-3.531-.272-4.697-.689-.587-.209-1.008-.44-1.269-.66C3.77 5.176 3.75 5.038 3.75 5Zm12.5 2.01c-.317.175-.67.33-1.048.464-1.367.488-3.206.776-5.202.776s-3.835-.288-5.202-.776A7.105 7.105 0 0 1 3.75 7.01V10c0 .039.02.177.284.4.26.22.682.452 1.269.662 1.166.416 2.827.688 4.697.688s3.531-.272 4.697-.688c.587-.21 1.009-.442 1.269-.662.264-.223.284-.361.284-.4V7.01Zm-12.5 5c.317.175.67.33 1.048.464 1.367.488 3.206.776 5.202.776s3.835-.288 5.202-.776c.377-.135.731-.29 1.048-.465V15c0 .039-.02.177-.284.4-.26.22-.682.452-1.268.661-1.167.417-2.828.689-4.698.689-1.87 0-3.531-.272-4.697-.689-.587-.209-1.008-.44-1.269-.66-.264-.224-.284-.362-.284-.401v-2.99Z"
		clip-rule="evenodd"
	/></svg>
