<svg
	xmlns="http://www.w3.org/2000/svg"
	width="20"
	height="20"
	fill="#91918E"
><path
		d="M17.5 7.75a.75.75 0 0 1-.75-.75V4.5c0-.69-.56-1.25-1.25-1.25H13a.75.75 0 0 1 0-1.5h2.5a2.75 2.75 0 0 1 2.75 2.75V7a.75.75 0 0 1-.75.75ZM2.5 12.25a.75.75 0 0 1 .75.75v2.5c0 .69.56 1.25 1.25 1.25H7a.75.75 0 0 1 0 1.5H4.5a2.75 2.75 0 0 1-2.75-2.75V13a.75.75 0 0 1 .75-.75ZM3.25 7a.75.75 0 0 1-1.5 0V4.5A2.75 2.75 0 0 1 4.5 1.75H7a.75.75 0 0 1 0 1.5H4.5c-.69 0-1.25.56-1.25 1.25V7ZM17.5 12.25a.75.75 0 0 0-.75.75v2.5c0 .69-.56 1.25-1.25 1.25H13a.75.75 0 0 0 0 1.5h2.5a2.75 2.75 0 0 0 2.75-2.75V13a.75.75 0 0 0-.75-.75Z"
	/><path
		fill-rule="evenodd"
		d="M6.57 5.006C7.482 4.685 8.695 4.5 10 4.5c1.304 0 2.517.185 3.43.506.454.16.875.367 1.196.634.317.264.624.664.624 1.193v6.334c0 .53-.307.929-.624 1.193-.321.267-.742.474-1.195.634-.914.321-2.127.506-3.431.506-1.304 0-2.517-.185-3.43-.506-.454-.16-.875-.367-1.196-.634-.317-.264-.624-.664-.624-1.193V6.833c0-.53.307-.929.624-1.193.321-.267.742-.474 1.195-.634Zm-.281 1.827a.794.794 0 0 1 .044-.04c.134-.11.373-.245.734-.372C7.782 6.17 8.819 6 10 6c1.181 0 2.218.17 2.933.421.361.127.6.261.734.373a.813.813 0 0 1 .044.04.809.809 0 0 1-.044.04c-.134.11-.373.244-.734.371-.715.252-1.752.422-2.933.422-1.18 0-2.218-.17-2.933-.422-.361-.127-.6-.26-.734-.372a.79.79 0 0 1-.044-.04ZM13.43 8.66a5.6 5.6 0 0 0 .319-.123v1.42a.537.537 0 0 1-.083.083c-.134.111-.373.245-.734.372-.715.252-1.752.421-2.933.421-1.18 0-2.218-.17-2.933-.42-.361-.128-.6-.262-.734-.373a.537.537 0 0 1-.083-.082v-1.42a5.6 5.6 0 0 0 .32.122c.913.322 2.126.507 3.43.507 1.304 0 2.517-.185 3.43-.507Zm-6.862 3.167a5.563 5.563 0 0 1-.319-.123v1.42a.539.539 0 0 0 .083.082c.134.112.373.246.734.373C7.782 13.83 8.819 14 10 14c1.181 0 2.218-.17 2.933-.421.361-.127.6-.261.734-.373a.539.539 0 0 0 .083-.082v-1.42c-.104.044-.21.085-.32.123-.913.322-2.126.506-3.43.506-1.304 0-2.517-.184-3.43-.506Z"
		clip-rule="evenodd"
	/></svg>
