<svg xmlns="http://www.w3.org/2000/svg" width="20" height="20" fill="#91918E">
  <g>
    <path
			fillRule="evenodd"
			d="M10.08 1.25a.83.83 0 00-.83.83v2.87a.8.8 0 00.8.8c2.31 0 4.2 1.92 4.2 4.25 0 .414.336.75.75.75h2.92a.83.83 0 00.83-.83 8.67 8.67 0 00-8.67-8.67zm.67 3.043V2.781a7.173 7.173 0 016.469 6.469h-1.518c-.336-2.566-2.373-4.635-4.951-4.957z"
			clipRule="evenodd"
		/>
    <path
			d="M7.479 1.619c.459-.138.896.225.896.704 0 .357-.248.662-.588.771a7.25 7.25 0 109.119 9.119c.109-.34.414-.588.771-.588.48 0 .842.437.704.896A8.75 8.75 0 117.48 1.62z"
		/>
    <path
			d="M7.392 4.874c.472-.24.983.139.983.668 0 .32-.197.604-.475.762a4.25 4.25 0 105.796 5.796c.158-.278.441-.475.762-.475.53 0 .908.511.668.983a5.75 5.75 0 11-7.734-7.734z"
		/>
  </g>
</svg>
