<svg
	width="20"
	height="20"
	fill="#91918E"
	viewBox="0 0 40 40"
	xmlns="http://www.w3.org/2000/svg"
>
<path
		d="M30.5357 12.1765L18.9857 12.1765C18.1124 12.1765 17.4044 12.8844 17.4044 13.7577C17.4044 14.631 18.1124 15.339 18.9857 15.339L30.5357 15.339C31.409 15.339 32.1169 14.631 32.1169 13.7577C32.1169 12.8844 31.409 12.1765 30.5357 12.1765Z"
		fill-rule="evenodd"
		clip-rule="evenodd"
	/>
<path
		d="M30.5357 17.6664L18.9857 17.6664C18.1124 17.6664 17.4044 18.3744 17.4044 19.2477C17.4044 20.121 18.1124 20.8289 18.9857 20.8289L30.5357 20.8289C31.409 20.8289 32.1169 20.121 32.1169 19.2477C32.1169 18.3744 31.409 17.6664 30.5357 17.6664Z"
		fill-rule="evenodd"
		clip-rule="evenodd"
	/>
<path
		d="M18.9857 23.1614C18.1124 23.1614 17.4044 23.8693 17.4044 24.7426V30.2426C17.4044 31.1159 18.1124 31.8239 18.9857 31.8239H30.5357C31.409 31.8239 32.1169 31.1159 32.1169 30.2426V24.7426C32.1169 23.8693 31.409 23.1614 30.5357 23.1614H18.9857ZM20.5669 28.6614V26.3239H28.9544V28.6614H20.5669Z"
		fill-rule="evenodd"
		clip-rule="evenodd"
	/>
<path
		d="M15.6858 6.66895C13.5975 6.66895 11.9046 8.36186 11.9046 10.4502L11.9046 20.4361H6.88594C6.01264 20.4361 5.30469 21.1441 5.30469 22.0174V32.294C5.30469 35.0092 7.41798 37.3315 10.1862 37.3315L10.1973 37.3314L32.7358 37.3314C35.4316 37.3314 37.6171 35.146 37.6171 32.4502V10.4502C37.6171 8.36187 35.9241 6.66895 33.8358 6.66895H15.6858ZM15.0671 10.4502C15.0671 10.1085 15.3441 9.83144 15.6858 9.83144L33.8358 9.83145C34.1775 9.83145 34.4546 10.1085 34.4546 10.4502V32.4502C34.4546 33.3994 33.685 34.1689 32.7358 34.1689L14.8047 34.1689C14.9744 33.6923 15.0671 33.1778 15.0671 32.6373V32.3308L15.0672 32.2925L15.0671 32.2738L15.0671 10.4502ZM8.46719 32.294V23.5986H11.9046L11.9046 32.3183C11.8925 33.4054 11.076 34.1597 10.2022 34.1689L10.185 34.1689L10.1815 34.169C9.2968 34.1664 8.46719 33.3991 8.46719 32.294Z"
		fill-rule="evenodd"
		clip-rule="evenodd"
	/>
</svg>
