<svg xmlns="http://www.w3.org/2000/svg" width="20" height="20" fill="#91918E">
  <path
		d="M7.5 2.75h-4A1.75 1.75 0 001.75 4.5v3c0 .966.784 1.75 1.75 1.75h4A1.75 1.75 0 009.25 7.5v-3A1.75 1.75 0 007.5 2.75zm.25 4.75a.25.25 0 01-.25.25h-4a.25.25 0 01-.25-.25v-3a.25.25 0 01.25-.25h4a.25.25 0 01.25.25v3zm8.75-4.75h-4a1.75 1.75 0 00-1.75 1.75v3c0 .966.784 1.75 1.75 1.75h4a1.75 1.75 0 001.75-1.75v-3a1.75 1.75 0 00-1.75-1.75zm.25 4.75a.25.25 0 01-.25.25h-4a.25.25 0 01-.25-.25v-3a.25.25 0 01.25-.25h4a.25.25 0 01.25.25v3zM7.5 10.75h-4a1.75 1.75 0 00-1.75 1.75v3c0 .966.784 1.75 1.75 1.75h4a1.75 1.75 0 001.75-1.75v-3a1.75 1.75 0 00-1.75-1.75zm.25 4.75a.25.25 0 01-.25.25h-4a.25.25 0 01-.25-.25v-3a.25.25 0 01.25-.25h4a.25.25 0 01.25.25v3zm8.75-4.75h-4a1.75 1.75 0 00-1.75 1.75v3c0 .966.784 1.75 1.75 1.75h4a1.75 1.75 0 001.75-1.75v-3a1.75 1.75 0 00-1.75-1.75zm.25 4.75a.25.25 0 01-.25.25h-4a.25.25 0 01-.25-.25v-3a.25.25 0 01.25-.25h4a.25.25 0 01.25.25v3z"
	/>
</svg>
