<svg xmlns="http://www.w3.org/2000/svg" width="20" height="20" fill="#91918E">
  <path
		fillRule="evenodd"
		d="M13.25 4.5a1.75 1.75 0 00-1.75-1.75h-8A1.75 1.75 0 001.75 4.5V5c0 .966.784 1.75 1.75 1.75h8A1.75 1.75 0 0013.25 5v-.5zm-1.75-.25a.25.25 0 01.25.25V5a.25.25 0 01-.25.25h-8A.25.25 0 013.25 5v-.5a.25.25 0 01.25-.25h8zM7.5 8c.966 0 1.75.784 1.75 1.75v.5A1.75 1.75 0 017.5 12h-4a1.75 1.75 0 01-1.75-1.75v-.5C1.75 8.784 2.534 8 3.5 8h4zm.25 1.75a.25.25 0 00-.25-.25h-4a.25.25 0 00-.25.25v.5c0 .138.112.25.25.25h4a.25.25 0 00.25-.25v-.5zm8.75 3.5c.966 0 1.75.784 1.75 1.75v.5a1.75 1.75 0 01-1.75 1.75h-13a1.75 1.75 0 01-1.75-1.75V15c0-.966.784-1.75 1.75-1.75h13zm.25 1.75a.25.25 0 00-.25-.25h-13a.25.25 0 00-.25.25v.5c0 .138.112.25.25.25h13a.25.25 0 00.25-.25V15z"
		clipRule="evenodd"
	/>
</svg>
