<svg xmlns="http://www.w3.org/2000/svg" width="20" height="20" fill="#91918E">
  <g>
    <path
			fillRule="evenodd"
			d="M10 1.75c-1.996 0-3.835.288-5.202.776-.68.243-1.284.55-1.732.928-.444.375-.816.894-.816 1.546v10c0 .652.372 1.17.816 1.546.448.378 1.052.685 1.732.928.947.338 2.12.58 3.415.697A.729.729 0 009 17.436c0-.4-.313-.727-.71-.764-1.166-.11-2.192-.326-2.987-.61-.587-.21-1.008-.442-1.269-.662-.264-.223-.284-.361-.284-.4v-2.99c.317.175.67.33 1.048.464.947.338 2.12.58 3.415.697A.729.729 0 009 12.436c0-.4-.313-.727-.71-.764-1.166-.11-2.192-.326-2.987-.61-.587-.21-1.008-.442-1.269-.662-.264-.223-.284-.361-.284-.4V7.01c.317.175.67.33 1.048.464 1.367.488 3.206.776 5.202.776s3.835-.288 5.202-.776c.377-.135.731-.29 1.048-.465V8.25a.75.75 0 001.5 0V5c0-.652-.372-1.17-.816-1.546-.448-.378-1.052-.685-1.732-.928-1.367-.488-3.206-.776-5.202-.776zM3.75 5c0-.039.02-.177.284-.4.26-.22.682-.452 1.269-.661C6.469 3.522 8.13 3.25 10 3.25s3.531.272 4.697.689c.587.209 1.009.44 1.269.66.264.224.284.362.284.401 0 .039-.02.177-.284.4-.26.22-.682.452-1.268.661-1.167.417-2.828.689-4.698.689-1.87 0-3.531-.272-4.697-.689-.587-.209-1.008-.44-1.269-.66C3.77 5.176 3.75 5.038 3.75 5z"
			clipRule="evenodd"
		/>
    <path
			d="M17.75 15.786a.75.75 0 01-1.5 0V13.31l-4.72 4.72a.75.75 0 11-1.06-1.061l4.72-4.72h-2.476a.75.75 0 010-1.5H17a.75.75 0 01.75.75v4.286z"
		/>
  </g>
</svg>
