<svg
	xmlns="http://www.w3.org/2000/svg"
	width="20"
	height="20"
	fill="#91918E"
><path
		fill-rule="evenodd"
		d="M4.25 16.5a2.75 2.75 0 0 1-2.75-2.75v-7.5A2.75 2.75 0 0 1 4.25 3.5h11.5a2.75 2.75 0 0 1 2.75 2.75v7.5a2.75 2.75 0 0 1-2.75 2.75H4.25ZM3 6.25C3 5.56 3.56 5 4.25 5h5v2.5H3V6.25ZM3 9h6.25v2H3V9Zm0 3.5v1.25c0 .69.56 1.25 1.25 1.25h5v-2.5H3Zm7.75 0V15h5c.69 0 1.25-.56 1.25-1.25V12.5h-6.25ZM17 11V9h-6.25v2H17Zm-6.25-3.5H17V6.25C17 5.56 16.44 5 15.75 5h-5v2.5Z"
		clip-rule="evenodd"
	/></svg>
