<svg xmlns="http://www.w3.org/2000/svg" width="20" height="20" fill="#91918E">
  <path
		fillRule="evenodd"
		d="M13.25 3.5c0-.966.784-1.75 1.75-1.75h.5c.966 0 1.75.784 1.75 1.75v13a1.75 1.75 0 01-1.75 1.75H15a1.75 1.75 0 01-1.75-1.75v-13zM15 3.25a.25.25 0 00-.25.25v13c0 .138.112.25.25.25h.5a.25.25 0 00.25-.25v-13a.25.25 0 00-.25-.25H15zM8 12.5c0-.966.784-1.75 1.75-1.75h.5c.966 0 1.75.784 1.75 1.75v4a1.75 1.75 0 01-1.75 1.75h-.5A1.75 1.75 0 018 16.5v-4zm1.75-.25a.25.25 0 00-.25.25v4c0 .138.112.25.25.25h.5a.25.25 0 00.25-.25v-4a.25.25 0 00-.25-.25h-.5zM4.5 6.75A1.75 1.75 0 002.75 8.5v8c0 .966.784 1.75 1.75 1.75H5a1.75 1.75 0 001.75-1.75v-8A1.75 1.75 0 005 6.75h-.5zM4.25 8.5a.25.25 0 01.25-.25H5a.25.25 0 01.25.25v8a.25.25 0 01-.25.25h-.5a.25.25 0 01-.25-.25v-8z"
		clipRule="evenodd"
	/>
</svg>
