<svg
	width="48"
	height="40"
	viewBox="0 0 49 40"
	fill="none"
	xmlns="http://www.w3.org/2000/svg"
>
<path
		d="M9.28845 16.7397H7.26888C6.23761 16.7397 5.97979 17.4405 6.5384 18.2414L9.7468 22.7895C10.2195 23.4474 10.907 23.4331 11.3653 22.7895L14.5737 18.2271C15.118 17.4405 14.8602 16.7397 13.8432 16.7397H11.7664C13.0125 11.3334 17.8251 7.35744 23.6403 7.35744C30.4009 7.35744 35.8151 12.7494 35.8151 19.5C35.8151 20.3806 35.7229 21.2388 35.5477 22.0654C35.86 22.0068 36.1799 21.9774 36.5033 21.9774C37.0139 21.9774 37.5162 22.0503 37.9932 22.196C38.1617 21.3206 38.25 20.4193 38.25 19.5C38.25 11.5194 31.6183 4.91177 23.6403 4.91177C16.5933 4.91177 10.6062 10.0463 9.28845 16.7397Z"
		fill="#C7C6C4"
	/>
<path
		d="M30.6147 32.2814V29.4994C28.6437 30.8699 26.2417 31.6679 23.6403 31.6569C19.5582 31.6426 15.9774 29.6689 13.7859 26.6225C13.3419 26.0361 12.6687 25.8502 12.0672 26.2077C11.4942 26.5653 11.3367 27.3519 11.8237 27.9812C14.5451 31.6283 18.8134 34.0882 23.6403 34.0882C26.1538 34.0882 28.5337 33.4309 30.6147 32.2814Z"
		fill="#C7C6C4"
	/>
<path
		d="M24.6859 12.306C24.6859 11.5623 24.07 10.9616 23.3252 10.9616C22.5804 10.9616 21.9788 11.5623 21.9788 12.306V20.4153C21.9788 20.7586 22.0791 21.0875 22.3656 21.4451L25.8318 26.0218C26.4047 26.7655 27.1782 26.8942 27.88 26.4223C28.5245 25.9789 28.5675 25.1637 28.0662 24.4629L24.6859 19.8862V12.306Z"
		fill="#C7C6C4"
	/>
<path
		d="M34.1437 35C33.1306 35 32.624 34.4874 32.624 33.3838V29.7634C32.624 28.7684 33.0462 28.2558 33.8844 28.1653V26.8205C33.8844 24.7339 35.3137 23.4253 37.1771 23.4253C39.0466 23.4253 40.4819 24.7339 40.4819 26.8205V28.1714C41.3141 28.2558 41.7302 28.7744 41.7302 29.7634V33.3838C41.7302 34.4874 41.2236 35 40.2105 35H34.1437ZM35.567 26.7783V28.1533H38.7993V26.7783C38.7993 25.7169 38.0938 25.0536 37.1771 25.0536C36.2605 25.0536 35.567 25.7169 35.567 26.7783Z"
		fill="#C7C6C4"
	/>
</svg>
