<svg
	width="16"
	height="16"
	viewBox="0 0 16 16"
	fill="none"
	xmlns="http://www.w3.org/2000/svg"
>
	<g clip-path="url(#clip0_909_65304)">
		<path
			d="M2.39697 14.4634H13.5964C15.0532 14.4634 15.8311 13.6921 15.8311 12.2485V4.24609C15.8311 2.80249 15.0532 2.03125 13.5964 2.03125H2.39697C0.940186 2.03125 0.162354 2.7959 0.162354 4.24609V12.2485C0.162354 13.6987 0.940186 14.4634 2.39697 14.4634ZM1.63232 4.39771C1.63232 3.79126 1.94214 3.50122 2.52222 3.50122H7.28809V5.74243H1.63232V4.39771ZM13.4712 3.50122C14.0447 3.50122 14.3611 3.79126 14.3611 4.39771V5.74243H8.70532V3.50122H13.4712ZM1.63232 9.3811V7.10693H7.28809V9.3811H1.63232ZM8.70532 9.3811V7.10693H14.3611V9.3811H8.70532ZM2.52222 12.9934C1.94214 12.9934 1.63232 12.7034 1.63232 12.0969V10.7522H7.28809V12.9934H2.52222ZM14.3611 12.0969C14.3611 12.7034 14.0447 12.9934 13.4712 12.9934H8.70532V10.7522H14.3611V12.0969Z"
			fill="#A6A299"
		/>
	</g>
	<defs>
		<clipPath id="clip0_909_65304">
			<rect width="16" height="16" fill="white" />
		</clipPath>
	</defs>
</svg>
