<svg xmlns="http://www.w3.org/2000/svg" width="20" height="20" fill="#91918E">
  <g>
    <path
			d="M12.5 6.75H8.375l2.28 2.171c.5.477.519 1.269.042 1.769l-2.444 2.56H12.5a.75.75 0 010 1.5H7.668c-1.1 0-1.663-1.318-.904-2.113L9.44 9.835l-2.551-2.43c-.817-.778-.266-2.155.862-2.155h4.75a.75.75 0 010 1.5z"
		/>
    <path
			fillRule="evenodd"
			d="M5.074 2.25A2.824 2.824 0 002.25 5.074v9.852a2.824 2.824 0 002.824 2.824h9.852a2.824 2.824 0 002.824-2.824V5.074a2.824 2.824 0 00-2.824-2.824H5.074zM3.75 5.074c0-.731.593-1.324 1.324-1.324h9.852c.731 0 1.324.593 1.324 1.324v9.852c0 .731-.593 1.324-1.324 1.324H5.074a1.324 1.324 0 01-1.324-1.324V5.074z"
			clipRule="evenodd"
		/>
  </g>
</svg>
