<svg xmlns="http://www.w3.org/2000/svg" width="20" height="20" fill="#91918E">
  <path
		fillRule="evenodd"
		d="M1.963 3.477a.75.75 0 01.671-.215l3.106.565A6.75 6.75 0 0110 6.51a6.75 6.75 0 014.26-2.683l3.106-.565a.75.75 0 01.868.891l-.624 2.998a5.764 5.764 0 01-4.118 4.383c-.512.14-.867.606-.867 1.137V16a.75.75 0 01-.75.75h-3.75a.75.75 0 01-.75-.75v-3.33c0-.53-.355-.995-.867-1.136A5.764 5.764 0 012.39 7.151l-.624-2.998a.75.75 0 01.197-.676zm1.498 1.46l.398 1.909a4.264 4.264 0 003.046 3.242 2.678 2.678 0 011.97 2.583v2.579h2.25v-2.58c0-1.206.806-2.263 1.97-2.582a4.264 4.264 0 003.046-3.242l.398-1.909-2.01.366a5.25 5.25 0 00-3.333 2.113l-.586.82a.75.75 0 01-1.22 0l-.586-.82a5.25 5.25 0 00-3.333-2.113l-2.01-.366z"
		clipRule="evenodd"
	/>
</svg>
