<svg
	xmlns="http://www.w3.org/2000/svg"
	width="20"
	height="20"
	fill="#91918E"
><path
		fill-rule="evenodd"
		d="M1.5 6a2.75 2.75 0 0 1 2.75-2.75h11.5A2.75 2.75 0 0 1 18.5 6v7.5a2.75 2.75 0 0 1-2.75 2.75H4.25A2.75 2.75 0 0 1 1.5 13.5V6Zm2.75-1.25C3.56 4.75 3 5.31 3 6v7.5c0 .69.56 1.25 1.25 1.25h.186v-10H4.25Zm3.39 10H5.936v-10H7.64v10Zm4.703 0h1.704v-10h-1.704v10Zm-1.5 0v-10H9.14v10h1.703Zm4.907 0h-.203v-10h.203c.69 0 1.25.56 1.25 1.25v7.5c0 .69-.56 1.25-1.25 1.25Z"
		clip-rule="evenodd"
	/></svg>
