<svg
	xmlns="http://www.w3.org/2000/svg"
	width="20"
	height="20"
	fill="#91918E"
><path
		d="M1.75 4.5a.75.75 0 0 1 .75-.75H15a.75.75 0 0 1 0 1.5H2.5a.75.75 0 0 1-.75-.75ZM1.75 8.5a.75.75 0 0 1 .75-.75H7a.75.75 0 0 1 0 1.5H2.5a.75.75 0 0 1-.75-.75ZM13.9 9.748a3.375 3.375 0 0 0-4.06 2.056h.3a.623.623 0 0 1 .441 1.066l-1.143 1.143a.625.625 0 0 1-.883 0L7.412 12.87a.623.623 0 0 1-.004-.88l.008-.007a.623.623 0 0 1 .438-.18h.675a4.626 4.626 0 0 1 8.316-1.369.625.625 0 0 1-1.04.694 3.375 3.375 0 0 0-1.905-1.38ZM18.584 14.013a.624.624 0 0 1-.442.183h-.675a4.62 4.62 0 0 1-2.494 2.987 4.624 4.624 0 0 1-5.822-1.617.625.625 0 1 1 1.04-.694 3.375 3.375 0 0 0 5.964-.676h-.299a.623.623 0 0 1-.625-.625.622.622 0 0 1 .188-.446l1.138-1.138a.625.625 0 0 1 .884 0l1.143 1.143a.621.621 0 0 1 0 .883Z"
	/></svg>
