<svg
	xmlns="http://www.w3.org/2000/svg"
	width="20"
	height="20"
	fill="#91918E"
><path
		fill-rule="evenodd"
		d="M4.25.25A2.75 2.75 0 0 0 1.5 3v10.75a2.75 2.75 0 0 0 2.75 2.75h11.5a2.75 2.75 0 0 0 2.75-2.75v-7.5c0-.055-.002-.11-.005-.164A.756.756 0 0 0 18.5 6V3A2.75 2.75 0 0 0 15.75.25H4.25ZM3 3c0-.69.56-1.25 1.25-1.25h2c.69 0 1.25.56 1.25 1.25v1.25c0 .414.336.75.75.75h7.5c.69 0 1.25.56 1.25 1.25v7.5c0 .69-.56 1.25-1.25 1.25H4.25C3.56 15 3 14.44 3 13.75V3Zm5.7-1.25c.192.375.3.8.3 1.25v.5h3.5V3c0-.69-.56-1.25-1.25-1.25H8.7ZM14 3.5h1.75a2.739 2.739 0 0 1 1.25.3V3c0-.69-.56-1.25-1.25-1.25H13.7c.192.375.3.8.3 1.25v.5Z"
		clip-rule="evenodd"
	/></svg>
