<svg xmlns="http://www.w3.org/2000/svg" width="20" height="20" fill="#91918E">
  <path
		d="M7 4.25a.75.75 0 01.75.75v4.728h4.5V5a.75.75 0 011.5 0v10.5a.75.75 0 01-1.5 0v-4.272h-4.5V15.5a.75.75 0 01-1.5 0V5A.75.75 0 017 4.25zm-5.75 7.732a.76.76 0 001.151.652l2.47-1.482a.76.76 0 000-1.304l-2.47-1.482a.76.76 0 00-1.151.652v2.964zm14.333-2.607a.625.625 0 100 1.25h1.109l-.948 1.308a.625.625 0 00.506.992h.254c.62 0 1.121.502 1.121 1.121v.09a.872.872 0 01-1.719.211l-.05-.199a.625.625 0 00-1.212.304l.05.199a2.123 2.123 0 004.181-.515v-.09a2.372 2.372 0 00-1.515-2.212l1.063-1.467a.625.625 0 00-.506-.992h-2.334z"
	/>
</svg>
