<svg xmlns="http://www.w3.org/2000/svg" width="20" height="20" fill="#91918E">
  <path
		d="M7 4.25a.75.75 0 01.75.75v4.728h4.5V5a.75.75 0 011.5 0v10.5a.75.75 0 01-1.5 0v-4.272h-4.5V15.5a.75.75 0 01-1.5 0V5A.75.75 0 017 4.25zm-5.75 7.732a.76.76 0 001.151.652l2.47-1.482a.76.76 0 000-1.304l-2.47-1.482a.76.76 0 00-1.151.652v2.964zm17.25 4.243h-3a.625.625 0 01-.505-.993l2.305-3.17c.157-.216.242-.476.242-.742v-.064a.644.644 0 00-.487-.623l-.037-.01a.67.67 0 00-.346.007.746.746 0 00-.531.594l-.024.145a.625.625 0 01-1.234-.205l.025-.145c.126-.76.68-1.38 1.42-1.591a1.92 1.92 0 01.993-.017l.037.01c.843.21 1.434.967 1.434 1.835v.064c0 .53-.169 1.048-.481 1.477l-1.584 2.178H18.5a.625.625 0 110 1.25z"
	/>
</svg>
