<svg xmlns="http://www.w3.org/2000/svg" viewBox="0 0 20 20" fill="#91918E"><path
		d="M15.75 3.5H4.25A2.756 2.756 0 0 0 1.5 6.25v7.5a2.756 2.756 0 0 0 2.75 2.75H5v2.75a.75.75 0 0 0 1.21.592l4.297-3.342h5.243a2.756 2.756 0 0 0 2.75-2.75v-7.5a2.756 2.756 0 0 0-2.75-2.75ZM17 13.75c0 .686-.564 1.25-1.25 1.25h-5.5a.75.75 0 0 0-.46.158L6.5 17.716V15.75a.75.75 0 0 0-.75-.75h-1.5C3.564 15 3 14.436 3 13.75v-7.5C3 5.564 3.564 5 4.25 5h11.5c.686 0 1.25.564 1.25 1.25v7.5Zm-2.125-5.5c0 .345-.28.625-.625.625h-8.5a.625.625 0 0 1 0-1.25h8.5c.345 0 .625.28.625.625Zm-2 3.25c0 .345-.28.625-.625.625h-6.5a.625.625 0 1 1 0-1.25h6.5c.345 0 .625.28.625.625Z"
	/></svg>
