<svg xmlns="http://www.w3.org/2000/svg" width="20" height="20" fill="none"><path stroke="#91918E" stroke-linecap="round" stroke-linejoin="round" stroke-width="1.5" d="M10 17.5c4.1421 0 7.5-3.3579 7.5-7.5 0-4.14214-3.3579-7.5-7.5-7.5-4.14214 0-7.5 3.35786-7.5 7.5 0 4.1421 3.35786 7.5 7.5 7.5Z"/><path stroke="#91918E" stroke-linecap="round" stroke-width="1.3" d="M7.66003 11.82s.59 1.17 2.33997 1.17c1.75 0 2.34-1.17 2.34-1.17"/><path fill="#91918E" d="M7.36999 9.67c.48601 0 .88-.45667.88-1.02s-.39399-1.02-.88-1.02-.88.45667-.88 1.02.39399 1.02.88 1.02ZM12.63 9.67c.486 0 .88-.45667.88-1.02s-.394-1.02-.88-1.02-.88.45667-.88 1.02.394 1.02.88 1.02Z"/></svg>