<svg xmlns="http://www.w3.org/2000/svg" viewBox="0 0 20 20" fill="#91918E"><path
		d="M15.75 15.5H4.25a2.753 2.753 0 0 1-2.75-2.75v-7.5A2.753 2.753 0 0 1 4.25 2.5h11.5a2.753 2.753 0 0 1 2.75 2.75v7.5a2.753 2.753 0 0 1-2.75 2.75ZM4.25 4C3.56 4 3 4.56 3 5.25v7.5c0 .69.56 1.25 1.25 1.25h11.5c.69 0 1.25-.56 1.25-1.25v-7.5C17 4.56 16.44 4 15.75 4H4.25ZM7.5 8.25a.75.75 0 0 0 0 1.5.75.75 0 0 0 0-1.5Zm-2.5 0a.75.75 0 0 0 0 1.5.75.75 0 0 0 0-1.5Zm2.5-2.5a.75.75 0 0 0 0 1.5.75.75 0 0 0 0-1.5Zm2.5 2.5a.75.75 0 0 0 0 1.5.75.75 0 0 0 0-1.5Zm0-2.5a.75.75 0 0 0 0 1.5.75.75 0 0 0 0-1.5Zm2.5 2.5a.75.75 0 0 0 0 1.5.75.75 0 0 0 0-1.5Zm0-2.5a.75.75 0 0 0 0 1.5.75.75 0 0 0 0-1.5Zm2.5 2.5a.75.75 0 0 0 0 1.5.75.75 0 0 0 0-1.5Zm0-2.5a.75.75 0 0 0 0 1.5.75.75 0 0 0 0-1.5Zm-10 0a.75.75 0 0 0 0 1.5.75.75 0 0 0 0-1.5Zm0 5a.75.75 0 0 0 0 1.5.75.75 0 0 0 0-1.5Zm10 0a.75.75 0 0 0 0 1.5.75.75 0 0 0 0-1.5Zm-2.5 0h-5a.75.75 0 0 0 0 1.5h5a.75.75 0 0 0 0-1.5Zm-2.163 8.627 3.328-1.673a.75.75 0 1 0-.674-1.34L10 17.867l-2.991-1.503a.75.75 0 1 0-.674 1.34l3.328 1.673a.745.745 0 0 0 .674 0Z"
	/></svg>
