<svg xmlns="http://www.w3.org/2000/svg" viewBox="0 0 20 20" fill="#91918E"><path
		d="M9.5 14.5c0 .475.088.926.212 1.361l-.258.258a3.74 3.74 0 0 1-2.651 1.096 3.74 3.74 0 0 1-2.652-1.096l-.35-.351a3.722 3.722 0 0 1-1.098-2.65c0-1.002.39-1.944 1.098-2.652l1.764-1.764a.75.75 0 1 1 1.061 1.06l-1.764 1.764c-.425.425-.66.99-.66 1.591 0 .602.235 1.166.66 1.591l.35.352a2.254 2.254 0 0 0 3.182-.001l1.168-1.169c-.025.202-.062.401-.062.61Zm.262-7.875 1.764-1.764c.851-.85 2.333-.849 3.182 0l.35.35a2.253 2.253 0 0 1 0 3.183L13.89 9.562c.202-.025.401-.062.61-.062.475 0 .926.088 1.361.212l.258-.258a3.757 3.757 0 0 0 0-5.304l-.35-.35c-1.416-1.414-3.887-1.417-5.303 0L8.702 5.566a.75.75 0 1 0 1.06 1.06Zm2.118.354-5.188 5.188a.75.75 0 1 0 1.06 1.06L12.94 8.04a.75.75 0 1 0-1.06-1.06ZM18.5 14.5c0 2.206-1.794 4-4 4-2.028 0-3.69-1.521-3.947-3.48-.023-.172-.053-.342-.053-.52 0-.498.103-.97.27-1.41a4 4 0 0 1 2.32-2.32 3.96 3.96 0 0 1 1.41-.27c.178 0 .348.03.52.053 1.959.258 3.48 1.92 3.48 3.947Zm-1.125 0a.626.626 0 0 0-.625-.625h-1.625V12.25a.626.626 0 0 0-1.25 0v1.625H12.25a.626.626 0 0 0 0 1.25h1.625v1.625a.626.626 0 0 0 1.25 0v-1.625h1.625c.345 0 .625-.28.625-.625Z"
	/></svg>
