<svg xmlns="http://www.w3.org/2000/svg" viewBox="0 0 20 20" fill="#91918E"><path
		d="M6.803 17.218a3.728 3.728 0 0 1-2.652-1.099l-.35-.35a3.754 3.754 0 0 1 0-5.303l1.764-1.764a.75.75 0 1 1 1.061 1.06l-1.764 1.764a2.253 2.253 0 0 0 0 3.183l.35.35c.85.85 2.332.85 3.182 0l1.764-1.765a.75.75 0 1 1 1.06 1.06L9.455 16.12a3.726 3.726 0 0 1-2.651 1.099Zm7.551-6 1.765-1.764a3.755 3.755 0 0 0 0-5.303l-.35-.35c-1.416-1.416-3.887-1.418-5.303 0L8.702 5.565a.75.75 0 1 0 1.06 1.061l1.764-1.764c.851-.851 2.333-.85 3.182 0l.35.35a2.253 2.253 0 0 1 0 3.182l-1.764 1.764a.75.75 0 1 0 1.06 1.06Zm-6.601 2.01L12.94 8.04a.75.75 0 1 0-1.06-1.06l-5.188 5.187a.75.75 0 1 0 1.06 1.06Z"
	/></svg>
