<svg xmlns="http://www.w3.org/2000/svg" viewBox="0 0 20 20" fill="#91918E"><path
		d="M17.96 8.62a8.074 8.074 0 0 0-2.79-4.77C13.71 2.64 11.88 2 9.96 2c-1.9.02-3.74.71-5.17 1.95A8.066 8.066 0 0 0 2.1 8.78c-.3 1.88.08 3.8 1.06 5.43a8.093 8.093 0 0 0 4.32 3.46c.83.28 1.7.42 2.56.42 1.01 0 2.02-.19 2.96-.56.38-.15.57-.59.42-.97a.753.753 0 0 0-.97-.42c-1.43.57-3.03.61-4.5.12a6.554 6.554 0 0 1-3.51-2.81 6.558 6.558 0 0 1-.87-4.41c.24-1.52 1.02-2.92 2.19-3.93s2.66-1.57 4.21-1.59c1.56-.02 3.05.52 4.24 1.5 1.19.98 2 2.36 2.27 3.88.2 1.11.11 2.25-.26 3.31-.18.52-.75.75-1.24.75-.68 0-1.24-.55-1.24-1.24V7.01c0-.41-.34-.75-.75-.75s-.75.34-.75.75v.02c-.64-.49-1.45-.77-2.39-.77-2.27 0-3.86 1.65-3.86 4.01s1.62 4.08 3.86 4.08c1.14 0 2.12-.45 2.82-1.19.49.77 1.34 1.28 2.31 1.28 1.24 0 2.28-.69 2.66-1.75.45-1.3.56-2.71.32-4.07Zm-8.1 4.23c-1.41 0-2.36-1.04-2.36-2.58s.93-2.51 2.36-2.51 2.39.99 2.39 2.51c0 1.79-1.2 2.58-2.39 2.58Z"
	/></svg>
