<svg
	xmlns="http://www.w3.org/2000/svg"
	width="20"
	height="20"
	fill="#91918E"
><path
		fill-rule="evenodd"
		d="M10 1.5a3.25 3.25 0 0 0-3.25 3.25v4.462a3.25 3.25 0 1 0 6.5 0V4.75A3.25 3.25 0 0 0 10 1.5ZM8.25 4.75a1.75 1.75 0 1 1 3.5 0v4.462a1.75 1.75 0 0 1-3.5 0V4.75Z"
		clip-rule="evenodd"
	/><path
		d="M9.25 15.161a6.036 6.036 0 0 1-4.38-2.755.75.75 0 1 1 1.26-.812c1.811 2.817 5.929 2.817 7.74 0a.75.75 0 0 1 1.26.812 6.037 6.037 0 0 1-4.38 2.755V17H13a.75.75 0 0 1 0 1.5H7A.75.75 0 0 1 7 17h2.25v-1.839Z"
	/></svg>
