<svg xmlns="http://www.w3.org/2000/svg" viewBox="0 0 20 20" fill="#91918E"><path
		d="M16.322 6.25h-.572V4.74c0-1.373-1.089-2.49-2.428-2.49H3.677C2.34 2.25 1.25 3.367 1.25 4.74v6.52c0 1.374 1.089 2.49 2.427 2.49h.573v1.52l.002.014c.013 1.362 1.094 2.466 2.425 2.466h9.645c1.34 0 2.428-1.116 2.428-2.49V8.74c0-1.373-1.089-2.49-2.428-2.49Zm.928 2.49v3.359L14.976 9.74a.75.75 0 0 0-1.08 0l-3.654 3.787-1.767-1.83a.772.772 0 0 0-1.079 0L5.75 13.403V8.739c0-.545.416-.989.927-.989h9.645c.512 0 .928.444.928.99ZM5.798 15.512l2.138-2.215 1.766 1.83a.772.772 0 0 0 1.08 0l3.654-3.786 2.814 2.918v1c0 .547-.416.99-.928.99H6.677c-.427 0-.772-.316-.88-.737Zm-2.12-3.263c-.512 0-.928-.443-.928-.99V4.74c0-.546.416-.99.927-.99h9.645c.512 0 .928.444.928.99v1.51H6.677C5.34 6.25 4.25 7.367 4.25 8.74v3.51h-.573Zm7.66-2.419a1.25 1.25 0 1 1-2.5 0 1.25 1.25 0 0 1 2.5 0Z"
	/></svg>
