<svg xmlns="http://www.w3.org/2000/svg" viewBox="0 0 20 20" fill="#91918E"><path
		d="M16.46 9.25h-6.38C7.2 8.67 6.83 7.6 6.83 6.73c0-1.15 1.33-1.98 3.17-1.98s3.17.83 3.17 1.98c0 .41.34.75.75.75s.75-.34.75-.75c0-2.05-1.92-3.48-4.67-3.48S5.33 4.68 5.33 6.73c0 1.13.45 1.94 1.08 2.52H3.55c-.41 0-.75.34-.75.75s.34.75.75.75h6.38c2.88.58 3.25 1.65 3.25 2.52 0 1.15-1.33 1.98-3.17 1.98s-3.17-.83-3.17-1.98c0-.41-.34-.75-.75-.75s-.75.34-.75.75c0 2.05 1.92 3.48 4.67 3.48s4.67-1.43 4.67-3.48c0-1.13-.45-1.94-1.08-2.52h2.86c.41 0 .75-.34.75-.75s-.34-.75-.75-.75Z"
	/></svg>
