<svg
	xmlns="http://www.w3.org/2000/svg"
	id="Layer_1"
	viewBox="0 0 20 20"
	fill="#91918E"
><defs><style>.cls-1{fill-rule:evenodd}</style></defs><path
		d="M10 5.5c.31 0 .58.19.7.47l3 7.5c.15.38-.03.82-.42.97a.745.745 0 0 1-.97-.42l-.71-1.78H8.42l-.71 1.78c-.15.38-.59.57-.97.42a.753.753 0 0 1-.42-.97l3-7.5c.11-.28.39-.47.7-.47Zm-.99 5.25h1.98L10 8.27l-.99 2.48Z"
		class="cls-1"
	/><path
		d="M2.25 5.07c0-1.56 1.26-2.82 2.82-2.82h9.85c1.56 0 2.82 1.26 2.82 2.82v9.85c0 1.56-1.26 2.82-2.82 2.82H5.07c-1.56 0-2.82-1.26-2.82-2.82V5.07Zm2.82-1.32c-.73 0-1.32.59-1.32 1.32v9.85c0 .73.59 1.32 1.32 1.32h9.85c.73 0 1.32-.59 1.32-1.32V5.07c0-.73-.59-1.32-1.32-1.32H5.07Z"
		class="cls-1"
	/></svg>
