<svg xmlns="http://www.w3.org/2000/svg" viewBox="0 0 20 20" fill="#91918E"><path
		d="m6.399 4.728-.008-.013c-.024-.057-.063-.105-.1-.155-.021-.029-.036-.063-.061-.088-.03-.031-.072-.05-.109-.075-.044-.03-.084-.066-.134-.086-.005-.003-.009-.008-.014-.01-.04-.016-.082-.013-.123-.021-.05-.01-.096-.026-.147-.026-.06 0-.116.016-.173.03-.034.008-.069.004-.102.017-.005.002-.008.007-.013.009-.051.02-.094.057-.14.089-.034.025-.075.043-.105.073-.024.024-.038.058-.059.085-.038.051-.077.1-.101.158-.002.005-.007.008-.009.013l-4 10.25a.75.75 0 1 0 1.398.544l1.13-2.897h4.342L9 15.522a.75.75 0 1 0 1.398-.544l-4-10.25Zm-2.284 6.397L5.7 7.063l1.585 4.062h-3.17ZM15.259 7.5h-.215a3.375 3.375 0 0 0-2.95 1.736.75.75 0 1 0 1.311.728A1.876 1.876 0 0 1 15.044 9h.215c.822 0 1.491.669 1.491 1.492v.016l-1.795.144c-2.55.153-3.455 1.577-3.455 2.748 0 1.2.733 2.6 2.8 2.6.97 0 1.798-.41 2.45-1.032v.282a.75.75 0 0 0 1.5 0v-4.758A2.995 2.995 0 0 0 15.259 7.5Zm-.96 7c-.32 0-1.299 0-1.299-1.1 0-.696.783-1.175 2.06-1.252l1.637-.131c-.225 1.27-1.147 2.483-2.397 2.483Z"
	/></svg>
