<svg
	xmlns="http://www.w3.org/2000/svg"
	width="20"
	height="20"
	fill="#91918E"
><path
		d="M8.875 8.5a.625.625 0 1 0-1.25 0v6a.625.625 0 1 0 1.25 0v-6ZM12.375 8.5a.625.625 0 1 0-1.25 0v6a.625.625 0 1 0 1.25 0v-6Z"
	/><path
		fill-rule="evenodd"
		d="M6.25 4v1.25H3.5a.75.75 0 0 0 0 1.5h.783l.381 8.375a2.75 2.75 0 0 0 2.747 2.625h5.178a2.75 2.75 0 0 0 2.747-2.625l.38-8.375h.784a.75.75 0 0 0 0-1.5h-2.75V4A1.75 1.75 0 0 0 12 2.25H8A1.75 1.75 0 0 0 6.25 4ZM8 3.75a.25.25 0 0 0-.25.25v1.25h4.5V4a.25.25 0 0 0-.25-.25H8Zm6.215 3-.377 8.307a1.25 1.25 0 0 1-1.25 1.193H7.412a1.25 1.25 0 0 1-1.249-1.193L5.785 6.75h8.43Z"
		clip-rule="evenodd"
	/></svg>
