<svg xmlns="http://www.w3.org/2000/svg" viewBox="0 0 20 20" fill="#91918E"><path
		d="M18.25 10.671v1.079a3.755 3.755 0 0 1-3.75 3.75H8.125V17a.625.625 0 0 1-.963.525l-3.5-2.25a.623.623 0 0 1 0-1.05l3.5-2.25a.625.625 0 0 1 .963.525V14H14.5c1.24 0 2.25-1.01 2.25-2.25v-1.079a.75.75 0 0 1 1.5 0ZM3.75 10V8.921c0-1.24 1.01-2.25 2.25-2.25h6.375v1.5a.625.625 0 0 0 .963.526l3.5-2.25a.626.626 0 0 0 0-1.051l-3.5-2.25a.625.625 0 0 0-.963.526v1.5H6a3.754 3.754 0 0 0-3.75 3.75V10a.75.75 0 0 0 1.5 0Z"
	/></svg>
