<svg xmlns="http://www.w3.org/2000/svg" viewBox="0 0 20 20" fill="#91918E"><path
		d="M10 1.25c-4.825 0-8.75 3.925-8.75 8.75s3.925 8.75 8.75 8.75 8.75-3.925 8.75-8.75S14.825 1.25 10 1.25Zm0 16c-3.998 0-7.25-3.252-7.25-7.25S6.002 2.75 10 2.75s7.25 3.252 7.25 7.25A7.258 7.258 0 0 1 10 17.25Zm3.53-4.902a.75.75 0 1 1-1.06 1.06L10.06 11l-2.53 2.53a.748.748 0 0 1-1.061 0 .75.75 0 0 1 0-1.06L9 9.939 6.593 7.53a.75.75 0 1 1 1.06-1.06l2.41 2.408 2.286-2.286a.75.75 0 1 1 1.06 1.06L11.122 9.94l2.408 2.409Z"
	/></svg>
