<svg xmlns="http://www.w3.org/2000/svg" width="20" height="20" fill="#91918E">
  <g>
    <path
			fillRule="evenodd"
			d="M8.897 3.238c.798-.746 2.103-.18 2.103.913v11.697c0 1.094-1.305 1.66-2.103.914L5.673 13.75H2.75A.75.75 0 012 13V7a.75.75 0 01.75-.75h2.923l3.224-3.012zm.603 1.49l-3.02 2.82a.75.75 0 01-.511.202H3.5v4.5h2.469a.75.75 0 01.512.202l3.019 2.82V4.728z"
			clipRule="evenodd"
		/>
    <path
			d="M12.77 6.424a.75.75 0 011.056.096 5.436 5.436 0 010 6.96.75.75 0 11-1.152-.96 3.936 3.936 0 000-5.04.75.75 0 01.096-1.056z"
		/>
    <path
			d="M16.364 4.57a.75.75 0 10-1.228.86 7.969 7.969 0 010 9.14.75.75 0 001.228.86 9.469 9.469 0 000-10.86z"
		/>
  </g>
</svg>
