<svg xmlns="http://www.w3.org/2000/svg" width="20" height="20" fill="#91918E">
  <g>
    <path
			d="M17.297 3.112a.852.852 0 011.233-.01c.314.325.306.852-.02 1.2l-8.5 9.118a1.1 1.1 0 01-.387.267l-.973.4-.106.02a.351.351 0 01-.343-.46l.326-.982c.05-.15.132-.29.24-.404l8.531-9.15z"
		/>
    <path
			d="M8.132 4.75c-.368 0-.73.086-1.059.25l-.658.33a.75.75 0 00.67 1.34l.659-.328a.868.868 0 01.388-.092h.09a.777.777 0 01.33 1.482L3.518 10.08A3.5 3.5 0 005 16.75h.08a3.58 3.58 0 002.53-1.048l.171-.172a.75.75 0 00-1.06-1.06l-.172.171c-.39.39-.918.609-1.47.609H5a2 2 0 01-.845-3.81l5.032-2.35a2.277 2.277 0 00-.963-4.34h-.091z"
		/>
  </g>
</svg>
