<svg xmlns="http://www.w3.org/2000/svg" width="20" height="20" fill="#91918E">
  <g>
    <path d="M9.75 7.5a1.75 1.75 0 11-3.5 0 1.75 1.75 0 013.5 0z" />
    <path
			fillRule="evenodd"
			d="M18.25 13.5a2.75 2.75 0 01-2.75 2.75H4a2.75 2.75 0 01-2.75-2.75V6A2.75 2.75 0 014 3.25h11.5A2.75 2.75 0 0118.25 6v7.5zM4 4.75c-.69 0-1.25.56-1.25 1.25v5.69l2.22-2.22a.75.75 0 011.06 0l2.22 2.22 4.47-4.47a.75.75 0 011.06 0l2.97 2.97V6c0-.69-.56-1.25-1.25-1.25H4zm12.75 7.56l-3.5-3.5-4.47 4.47a.75.75 0 01-1.06 0L5.5 11.06l-2.719 2.72A1.25 1.25 0 004 14.75h11.5c.69 0 1.25-.56 1.25-1.25v-1.19z"
			clipRule="evenodd"
		/>
  </g>
</svg>
