<svg xmlns="http://www.w3.org/2000/svg" width="20" height="20" fill="#91918E">
  <g>
    <path
			d="M7.25 12.804c0 .344.376.558.675.385l4.852-2.805a.443.443 0 000-.768L7.925 6.81a.449.449 0 00-.675.385v5.608z"
		/>
    <path
			fillRule="evenodd"
			d="M15.75 16.5a2.75 2.75 0 002.75-2.75v-7.5a2.75 2.75 0 00-2.75-2.75H4.25A2.75 2.75 0 001.5 6.25v7.5a2.75 2.75 0 002.75 2.75h11.5zM17 13.75c0 .69-.56 1.25-1.25 1.25H4.25C3.56 15 3 14.44 3 13.75v-7.5C3 5.56 3.56 5 4.25 5h11.5c.69 0 1.25.56 1.25 1.25v7.5z"
			clipRule="evenodd"
		/>
  </g>
</svg>
