<svg xmlns="http://www.w3.org/2000/svg" viewBox="0 0 20 20" fill="#91918E"><path
		d="M1.75 4.77c0-.41.34-.75.75-.75H15c.41 0 .75.34.75.75s-.34.75-.75.75H2.5c-.41 0-.75-.34-.75-.75ZM14 14.48H2.5c-.41 0-.75.34-.75.75s.34.75.75.75H14c.41 0 .75-.34.75-.75s-.34-.75-.75-.75Zm4.25-5.46v1.5c0 .97-.78 1.75-1.75 1.75h-13c-.97 0-1.75-.78-1.75-1.75v-1.5c0-.97.78-1.75 1.75-1.75h13c.97 0 1.75.78 1.75 1.75Zm-1.5 0c0-.14-.11-.25-.25-.25h-13c-.14 0-.25.11-.25.25v1.5c0 .14.11.25.25.25h13c.14 0 .25-.11.25-.25v-1.5Z"
		style="fill-rule:evenodd"
	/></svg>
