<svg
	width="20"
	height="20"
	viewBox="0 0 20 20"
	fill="#91918E"
	xmlns="http://www.w3.org/2000/svg"
>
<g clip-path="url(#clip0_400_7080)">
<path
			d="M5.125 8.25C5.125 7.90482 5.40482 7.625 5.75 7.625H14.25C14.5952 7.625 14.875 7.90482 14.875 8.25C14.875 8.59518 14.5952 8.875 14.25 8.875H5.75C5.40482 8.875 5.125 8.59518 5.125 8.25Z"
		/>
<path
			d="M5.125 11.5C5.125 11.1548 5.40482 10.875 5.75 10.875H12.25C12.5952 10.875 12.875 11.1548 12.875 11.5C12.875 11.8452 12.5952 12.125 12.25 12.125H5.75C5.40482 12.125 5.125 11.8452 5.125 11.5Z"
		/>
<path
			fill-rule="evenodd"
			clip-rule="evenodd"
			d="M4.25 3.5C2.73579 3.5 1.5 4.73579 1.5 6.25V13.75C1.5 15.2642 2.73579 16.5 4.25 16.5H5V19.25C5 19.5364 5.16316 19.7979 5.42049 19.9237C5.67781 20.0496 5.98435 20.0179 6.21046 19.842L10.5073 16.5H15.75C17.2642 16.5 18.5 15.2642 18.5 13.75V6.25C18.5 4.73579 17.2642 3.5 15.75 3.5H4.25ZM3 6.25C3 5.56421 3.56421 5 4.25 5H15.75C16.4358 5 17 5.56421 17 6.25V13.75C17 14.4358 16.4358 15 15.75 15H10.25C10.0832 15 9.92119 15.0556 9.78955 15.158L6.5 17.7165V15.75C6.5 15.3358 6.16421 15 5.75 15H4.25C3.56421 15 3 14.4358 3 13.75V6.25Z"
		/>
</g>
<defs>
<clipPath id="clip0_400_7080">
<rect width="20" height="20" />
</clipPath>
</defs>
</svg>
