<svg
	xmlns="http://www.w3.org/2000/svg"
	width="44"
	height="44"
	fill="#91918E"
	viewBox="0 0 20 20"
>
<path
		d="M16.439 8.142a.75.75 0 0 1 .311.608v7a.75.75 0 0 1-1.5 0V9.79l-.513.172a.75.75 0 0 1-.474-1.424l1.5-.5a.75.75 0 0 1 .676.104Z"
	/><path
		d="M13.75 15.75a.75.75 0 0 1 .75-.75h3a.75.75 0 0 1 0 1.5h-3a.75.75 0 0 1-.75-.75ZM4 3.5a.75.75 0 0 1 .75.75v11.5a.75.75 0 0 1-1.5 0V4.25A.75.75 0 0 1 4 3.5Z"
	/><path
		d="M2 15.75a.75.75 0 0 1 .75-.75h2.5a.75.75 0 0 1 0 1.5h-2.5a.75.75 0 0 1-.75-.75ZM2 4.25a.75.75 0 0 1 .75-.75h2.5a.75.75 0 0 1 0 1.5h-2.5A.75.75 0 0 1 2 4.25ZM3.375 10c0-.345.28-.625.625-.625h7a.625.625 0 1 1 0 1.25H4A.625.625 0 0 1 3.375 10Z"
	/><path
		d="M11 3.5a.75.75 0 0 1 .75.75v11.5a.75.75 0 0 1-1.5 0V4.25A.75.75 0 0 1 11 3.5Z"
	/><path
		d="M9 15.75a.75.75 0 0 1 .75-.75h2.5a.75.75 0 0 1 0 1.5h-2.5a.75.75 0 0 1-.75-.75ZM9 4.25a.75.75 0 0 1 .75-.75h2.5a.75.75 0 0 1 0 1.5h-2.5A.75.75 0 0 1 9 4.25Z"
	/>
	</svg>
