<svg
	xmlns="http://www.w3.org/2000/svg"
	width="44"
	height="44"
	fill="#91918E"
	viewBox="0 0 20 20"
><path
		d="M4 3.5a.75.75 0 0 1 .75.75v11.5a.75.75 0 0 1-1.5 0V4.25A.75.75 0 0 1 4 3.5Z"
	/><path
		d="M2 15.75a.75.75 0 0 1 .75-.75h2.5a.75.75 0 0 1 0 1.5h-2.5a.75.75 0 0 1-.75-.75ZM2 4.25a.75.75 0 0 1 .75-.75h2.5a.75.75 0 0 1 0 1.5h-2.5A.75.75 0 0 1 2 4.25ZM3.375 10c0-.345.28-.625.625-.625h7a.625.625 0 1 1 0 1.25H4A.625.625 0 0 1 3.375 10Z"
	/><path
		d="M11 3.5a.75.75 0 0 1 .75.75v11.5a.75.75 0 0 1-1.5 0V4.25A.75.75 0 0 1 11 3.5Z"
	/><path
		d="M9 15.75a.75.75 0 0 1 .75-.75h2.5a.75.75 0 0 1 0 1.5h-2.5a.75.75 0 0 1-.75-.75ZM9 4.25a.75.75 0 0 1 .75-.75h2.5a.75.75 0 0 1 0 1.5h-2.5A.75.75 0 0 1 9 4.25ZM14.877 12.381a.75.75 0 0 0 1.058-.085l2.39-2.81a.75.75 0 0 0-.572-1.236h-3.5a.75.75 0 0 0 0 1.5h1.878l-1.339 1.574a.75.75 0 0 0 .085 1.057Z"
	/><path
		d="M15.176 11.084c.224-.056.459-.084.702-.084.802 0 1.482.304 1.953.84.46.523.672 1.21.672 1.91s-.212 1.387-.672 1.91c-.471.536-1.15.84-1.953.84-1.119 0-1.96-.59-2.361-1.476a.75.75 0 0 1 1.366-.62c.16.351.467.596.995.596.403 0 .66-.142.826-.33.177-.2.3-.513.3-.92 0-.407-.123-.72-.3-.92-.165-.188-.423-.33-.826-.33-.128 0-.24.015-.337.039a.75.75 0 0 1-.365-1.455Z"
	/></svg>
