<svg
	xmlns="http://www.w3.org/2000/svg"
	width="44"
	height="44"
	fill="#91918E"
	viewBox="0 0 20 20"
><path
		d="M13.547 9.254C13.957 8.478 14.749 8 15.75 8c.745 0 1.39.264 1.843.748.448.477.657 1.108.657 1.752 0 .545-.15 1.08-.467 1.521L15.693 15h2.057a.75.75 0 0 1 0 1.5h-3.5a.75.75 0 0 1-.614-1.18l2.928-4.173c.111-.154.186-.372.186-.647 0-.325-.103-.569-.25-.725-.14-.149-.371-.275-.75-.275-.486 0-.745.206-.877.455a.75.75 0 1 1-1.326-.7ZM4 3.5a.75.75 0 0 1 .75.75v11.5a.75.75 0 0 1-1.5 0V4.25A.75.75 0 0 1 4 3.5Z"
	/><path
		d="M2 15.75a.75.75 0 0 1 .75-.75h2.5a.75.75 0 0 1 0 1.5h-2.5a.75.75 0 0 1-.75-.75ZM2 4.25a.75.75 0 0 1 .75-.75h2.5a.75.75 0 0 1 0 1.5h-2.5A.75.75 0 0 1 2 4.25ZM3.375 10c0-.345.28-.625.625-.625h7a.625.625 0 1 1 0 1.25H4A.625.625 0 0 1 3.375 10Z"
	/><path
		d="M11 3.5a.75.75 0 0 1 .75.75v11.5a.75.75 0 0 1-1.5 0V4.25A.75.75 0 0 1 11 3.5Z"
	/><path
		d="M9 15.75a.75.75 0 0 1 .75-.75h2.5a.75.75 0 0 1 0 1.5h-2.5a.75.75 0 0 1-.75-.75ZM9 4.25a.75.75 0 0 1 .75-.75h2.5a.75.75 0 0 1 0 1.5h-2.5A.75.75 0 0 1 9 4.25Z"
	/></svg>
