<svg
	width="44"
	height="44"
	viewBox="0 0 44 44"
	fill="#91918E"
	xmlns="http://www.w3.org/2000/svg"
>
<path
		d="M16.1895 28.0176C14.6787 28.0176 13.8721 27.2246 13.8721 25.7207V17.4219C13.8721 15.918 14.6787 15.125 16.1895 15.125H27.8037C29.3145 15.125 30.1211 15.9248 30.1211 17.4219V25.7207C30.1211 27.2178 29.3145 28.0176 27.8037 28.0176H16.1895ZM15.3965 17.5791V24.709L17.167 23.1299C17.4541 22.877 17.7275 22.7471 18.0488 22.7471C18.3701 22.7471 18.6846 22.8838 18.9717 23.1367L20.2295 24.2715L23.3125 21.5166C23.627 21.2432 23.9619 21.1133 24.3379 21.1133C24.7002 21.1133 25.0557 21.25 25.3564 21.5234L28.5967 24.5586V17.5791C28.5967 16.9502 28.2686 16.6494 27.6738 16.6494H16.3193C15.7178 16.6494 15.3965 16.9502 15.3965 17.5791ZM19.3203 21.7422C18.4043 21.7422 17.6592 20.9971 17.6592 20.0811C17.6592 19.1719 18.4043 18.4131 19.3203 18.4131C20.2295 18.4131 20.9746 19.1719 20.9746 20.0811C20.9746 20.9971 20.2295 21.7422 19.3203 21.7422Z"
	/>
</svg>
