<svg
	xmlns="http://www.w3.org/2000/svg"
	width="20"
	height="20"
	fill="#91918E"
><path
		fill-rule="evenodd"
		d="M6.25 3C5.56 3 5 3.56 5 4.25v11.5c0 .69.56 1.25 1.25 1.25H7a.75.75 0 0 1 0 1.5h-.75a2.75 2.75 0 0 1-2.75-2.75V4.25A2.75 2.75 0 0 1 6.25 1.5h4.086c.464 0 .909.184 1.237.513l4.414 4.414c.329.328.513.773.513 1.237V9A.75.75 0 0 1 15 9v-.5h-2.75A2.75 2.75 0 0 1 9.5 5.75V3H6.25ZM11 5.75V3.56L14.44 7h-2.19C11.56 7 11 6.44 11 5.75Z"
		clip-rule="evenodd"
	/><path
		d="M16.5 16.036a.75.75 0 0 1-1.5 0V13.56l-4.72 4.72a.75.75 0 1 1-1.06-1.061l4.72-4.72h-2.476a.75.75 0 0 1 0-1.5h4.286a.75.75 0 0 1 .75.75v4.286Z"
	/></svg>
