<svg
	width="44"
	height="44"
	viewBox="0 0 44 44"
	fill="#91918E"
	xmlns="http://www.w3.org/2000/svg"
>
<path
		d="M15.8682 18.3652C15.2939 18.3652 14.8291 17.9004 14.8291 17.3262C14.8291 16.752 15.2939 16.2871 15.8682 16.2871C16.4424 16.2871 16.9072 16.752 16.9072 17.3262C16.9072 17.9004 16.4424 18.3652 15.8682 18.3652ZM19.1973 18.0508C18.7871 18.0508 18.4727 17.7295 18.4727 17.3262C18.4727 16.916 18.7939 16.6016 19.1973 16.6016H28.4463C28.8496 16.6016 29.1709 16.9229 29.1709 17.3262C29.1709 17.7295 28.8496 18.0508 28.4463 18.0508H19.1973ZM15.8682 22.6104C15.2939 22.6104 14.8291 22.1455 14.8291 21.5713C14.8291 20.9971 15.2939 20.5322 15.8682 20.5322C16.4424 20.5322 16.9072 20.9971 16.9072 21.5713C16.9072 22.1455 16.4424 22.6104 15.8682 22.6104ZM19.1973 22.2959C18.7871 22.2959 18.4727 21.9746 18.4727 21.5713C18.4727 21.168 18.7939 20.8467 19.1973 20.8467H28.4463C28.8496 20.8467 29.1709 21.168 29.1709 21.5713C29.1709 21.9814 28.8496 22.2959 28.4463 22.2959H19.1973ZM15.8682 26.8555C15.2939 26.8555 14.8291 26.3906 14.8291 25.8164C14.8291 25.249 15.2939 24.7773 15.8682 24.7773C16.4424 24.7773 16.9072 25.249 16.9072 25.8164C16.9072 26.3906 16.4424 26.8555 15.8682 26.8555ZM19.1973 26.541C18.7871 26.541 18.4727 26.2197 18.4727 25.8164C18.4727 25.4131 18.7939 25.0986 19.1973 25.0986H28.4463C28.8496 25.0986 29.1709 25.4131 29.1709 25.8164C29.1709 26.2266 28.8496 26.541 28.4463 26.541H19.1973Z"
	/>
</svg>
