<svg
	xmlns="http://www.w3.org/2000/svg"
	width="44"
	height="44"
	fill="#91918E"
	viewBox="0 0 20 20"
><path
		d="M8 13.25a.75.75 0 0 1 .75-.75h8a.75.75 0 0 1 0 1.5h-8a.75.75 0 0 1-.75-.75ZM8 6.75A.75.75 0 0 1 8.75 6h8a.75.75 0 0 1 0 1.5h-8A.75.75 0 0 1 8 6.75Z"
	/><path
		d="M5.237 4.393V9.12H3.954V5.575h-.028l-1.034.618v-1.09l1.164-.71h1.181ZM2.713 15.62v-.923l1.763-1.46a4 4 0 0 0 .3-.271c.085-.087.15-.175.194-.266a.658.658 0 0 0 .07-.302.59.59 0 0 0-.079-.312.509.509 0 0 0-.212-.198.665.665 0 0 0-.314-.072.665.665 0 0 0-.314.072.497.497 0 0 0-.208.21.708.708 0 0 0-.074.337H2.62c0-.333.075-.619.224-.859.15-.24.36-.425.633-.554.272-.13.592-.194.958-.194.378 0 .706.06.983.183.279.12.493.289.644.507a1.395 1.395 0 0 1 .115 1.311 2.22 2.22 0 0 1-.406.594 8.306 8.306 0 0 1-.833.775l-.443.37v.027H6.34v1.025H2.713Z"
	/></svg>
