<svg
	xmlns="http://www.w3.org/2000/svg"
	width="20"
	height="20"
	fill="#91918E"
><path
		d="M6.625 11.25c0-.345.28-.625.625-.625h5.5a.625.625 0 1 1 0 1.25h-5.5a.625.625 0 0 1-.625-.625ZM7.25 13.625a.625.625 0 1 0 0 1.25h5.5a.625.625 0 1 0 0-1.25h-5.5Z"
	/><path
		fill-rule="evenodd"
		d="M16.5 15.75a2.75 2.75 0 0 1-2.75 2.75h-7.5a2.75 2.75 0 0 1-2.75-2.75V4.25A2.75 2.75 0 0 1 6.25 1.5h4.086c.464 0 .909.184 1.237.513l4.414 4.414c.329.328.513.773.513 1.237v8.086ZM5 4.25C5 3.56 5.56 3 6.25 3H9.5v2.75a2.75 2.75 0 0 0 2.75 2.75H15v7.25c0 .69-.56 1.25-1.25 1.25h-7.5C5.56 17 5 16.44 5 15.75V4.25ZM14.44 7h-2.19C11.56 7 11 6.44 11 5.75V3.56L14.44 7Z"
		clip-rule="evenodd"
	/></svg>
