<svg
	width="44"
	height="44"
	viewBox="0 0 44 44"
	fill="#91918E"
	xmlns="http://www.w3.org/2000/svg"
>
<path
		d="M16.1895 28.0176C14.6787 28.0176 13.8721 27.2246 13.8721 25.7207V17.4219C13.8721 15.918 14.6787 15.125 16.1895 15.125H27.8037C29.3145 15.125 30.1211 15.9248 30.1211 17.4219V25.7207C30.1211 27.2178 29.3145 28.0176 27.8037 28.0176H16.1895ZM15.3965 17.5791V18.9736H21.2617V16.6494H16.3193C15.7178 16.6494 15.3965 16.9502 15.3965 17.5791ZM27.6738 16.6494H22.7314V18.9736H28.5967V17.5791C28.5967 16.9502 28.2686 16.6494 27.6738 16.6494ZM15.3965 22.7471H21.2617V20.3887H15.3965V22.7471ZM22.7314 22.7471H28.5967V20.3887H22.7314V22.7471ZM16.3193 26.4932H21.2617V24.1689H15.3965V25.5635C15.3965 26.1924 15.7178 26.4932 16.3193 26.4932ZM28.5967 25.5635V24.1689H22.7314V26.4932H27.6738C28.2686 26.4932 28.5967 26.1924 28.5967 25.5635Z"
	/>
</svg>
