<svg
	xmlns="http://www.w3.org/2000/svg"
	width="44"
	height="44"
	fill="#91918E"
	viewBox="0 0 20 20"
><path
		d="M8 13.25a.75.75 0 0 1 .75-.75h8a.75.75 0 0 1 0 1.5h-8a.75.75 0 0 1-.75-.75ZM8 6.75A.75.75 0 0 1 8.75 6h8a.75.75 0 0 1 0 1.5h-8A.75.75 0 0 1 8 6.75Z"
	/><path
		d="M6.654 4.474c.29.186.374.573.188.863l-2.245 3.5A.625.625 0 0 1 3.59 8.9L2.27 7.315a.625.625 0 0 1 .96-.8l.775.93L5.79 4.663a.625.625 0 0 1 .864-.189ZM6.654 10.974c.29.186.374.573.188.864l-2.245 3.5a.625.625 0 0 1-1.006.062L2.27 13.815a.625.625 0 1 1 .96-.8l.775.93 1.785-2.783a.625.625 0 0 1 .864-.188Z"
	/></svg>
