<svg
	xmlns="http://www.w3.org/2000/svg"
	width="44"
	height="44"
	fill="#91918E"
	viewBox="0 0 20 20"
>
	<path
		d="M8 13.25a.75.75 0 0 1 .75-.75h8a.75.75 0 0 1 0 1.5h-8a.75.75 0 0 1-.75-.75ZM8 6.75A.75.75 0 0 1 8.75 6h8a.75.75 0 0 1 0 1.5h-8A.75.75 0 0 1 8 6.75Z"
	/>
	<path
		d="M3.245 9.035c-.299.166-.58.205-.847.116C2.133 9.063 2 8.841 2 8.487V5.05c0-.365.127-.592.382-.68.265-.1.553-.05.863.15l2.69 1.61a.768.768 0 0 1 0 1.295l-2.69 1.61ZM3.245 15.585c-.299.166-.58.205-.847.116-.265-.088-.398-.31-.398-.664V11.6c0-.365.127-.592.382-.68.265-.1.553-.05.863.15l2.69 1.61a.768.768 0 0 1 0 1.295l-2.69 1.61Z"
	/>
</svg>
